<?xml version="1.0" encoding="UTF-8"?>
<svg version="1.1" xmlns="http://www.w3.org/2000/svg" width="1024" height="1024">
<path d="M0 0 C1.34665741 0.02293121 1.34665741 0.02293121 2.72052002 0.04632568 C20.19009353 0.36332472 37.73008287 1.41703211 54.875 4.9375 C55.95418701 5.15188721 57.03337402 5.36627441 58.14526367 5.5871582 C78.96506182 9.83335209 78.96506182 9.83335209 88.35546875 13.76953125 C90.84458694 14.86014095 90.84458694 14.86014095 94.625 14.625 C94.625 15.285 94.625 15.945 94.625 16.625 C95.20507812 16.81835938 95.78515625 17.01171875 96.3828125 17.2109375 C97.99882817 17.74960939 99.61470771 18.28868982 101.23046875 18.828125 C103.17259357 19.47444386 105.11718382 20.11335107 107.0625 20.75 C121.38362035 25.64013866 136.00149738 36.04322203 147.625 45.625 C148.59566406 46.40746094 149.56632813 47.18992187 150.56640625 47.99609375 C153.26851633 50.18728554 155.95034311 52.40044718 158.625 54.625 C159.25664063 55.14320313 159.88828125 55.66140625 160.5390625 56.1953125 C165.87977327 60.58890215 165.87977327 60.58890215 167.625 62.625 C167.625 63.285 167.625 63.945 167.625 64.625 C168.285 64.625 168.945 64.625 169.625 64.625 C171.3515625 66.3046875 171.3515625 66.3046875 173.25 68.5 C173.88164063 69.21929687 174.51328125 69.93859375 175.1640625 70.6796875 C176.625 72.625 176.625 72.625 176.625 74.625 C177.285 74.625 177.945 74.625 178.625 74.625 C180.21897428 76.44274374 181.67792158 78.25686335 183.125 80.1875 C183.56642334 80.77104248 184.00784668 81.35458496 184.46264648 81.95581055 C207.64586548 112.94759471 228.7909892 154.02698968 229.421875 193.5625 C229.48890625 194.243125 229.5559375 194.92375 229.625 195.625 C230.285 195.955 230.945 196.285 231.625 196.625 C233.91529185 250.76822361 227.76905707 298.57674455 203.625 347.625 C202.81675781 349.28595703 202.81675781 349.28595703 201.9921875 350.98046875 C193.96320876 366.51080764 181.530445 381.80375154 169.625 394.625 C168.965 394.625 168.305 394.625 167.625 394.625 C167.625 395.285 167.625 395.945 167.625 396.625 C166.25 398.25 166.25 398.25 164.625 399.625 C163.965 399.625 163.305 399.625 162.625 399.625 C162.625 400.285 162.625 400.945 162.625 401.625 C160.91015625 403.28125 160.91015625 403.28125 158.6875 405.125 C155.70454821 407.51426999 155.70454821 407.51426999 153.625 410.625 C151.99622123 411.52602656 150.36673033 412.42578178 148.734375 413.3203125 C146.43192212 414.74442224 144.49546657 416.36624134 142.4375 418.125 C130.32496095 428.00336645 115.99541972 435.59316439 101.625 441.625 C100.43648437 442.13417969 99.24796875 442.64335938 98.0234375 443.16796875 C90.12902468 446.41464706 82.02215914 448.73439755 73.75 450.8125 C72.83814941 451.0504126 71.92629883 451.2883252 70.98681641 451.53344727 C49.08525851 456.76774726 26.51640134 457.09313445 4.12254286 457.13111091 C0.3242806 457.14068782 -3.47387216 457.16690119 -7.27206421 457.19111633 C-14.41811805 457.23426686 -21.56415006 457.26312574 -28.71029317 457.28643972 C-36.86558221 457.31377266 -45.02075825 457.35766278 -53.17596555 457.40272844 C-69.9089191 457.49483494 -86.64189317 457.56684844 -103.375 457.625 C-103.44446019 448.15883128 -103.49779088 438.69275006 -103.53043652 429.22638226 C-103.5461035 424.83092445 -103.56736044 420.43564078 -103.60131836 416.0402832 C-103.63387524 411.79981076 -103.65184523 407.55950599 -103.65963173 403.31891823 C-103.66518187 401.69974947 -103.67601979 400.08059006 -103.69219017 398.46149254 C-103.71391617 396.19637477 -103.71696903 393.93195297 -103.71557617 391.66674805 C-103.72556892 389.73148506 -103.72556892 389.73148506 -103.73576355 387.75712585 C-103.375 384.625 -103.375 384.625 -101.85371399 382.68489075 C-101.36573837 382.3351268 -100.87776276 381.98536285 -100.375 381.625 C-99.715 382.285 -99.055 382.945 -98.375 383.625 C-96.32247805 383.79297933 -96.32247805 383.79297933 -93.95703125 383.56640625 C-93.04252197 383.50960693 -92.1280127 383.45280762 -91.18579102 383.39428711 C-90.19635498 383.32604736 -89.20691895 383.25780762 -88.1875 383.1875 C-76.18828125 382.49301453 -64.36213607 382.88596365 -52.375 383.625 C-52.045 382.965 -51.715 382.305 -51.375 381.625 C-51.375 382.285 -51.375 382.945 -51.375 383.625 C-50.57167236 383.5513623 -49.76834473 383.47772461 -48.94067383 383.40185547 C-39.66137299 382.68231934 -30.44280186 382.56884603 -21.13671875 382.6328125 C-19.84259064 382.64068787 -18.54846252 382.64856323 -17.21511841 382.65667725 C-11.80710283 382.69203969 -6.39922544 382.73338861 -0.99145508 382.79638672 C18.81060139 383.01897868 37.16894506 382.39458797 56.1875 376.4375 C57.95902538 375.90032779 59.73113156 375.36506599 61.50390625 374.83203125 C62.2522876 374.5997583 63.00066895 374.36748535 63.77172852 374.12817383 C65.625 373.625 65.625 373.625 67.625 373.625 C67.955 372.965 68.285 372.305 68.625 371.625 C70.62008067 370.94375294 72.62138693 370.28072791 74.625 369.625 C80.03124953 367.23613452 80.03124953 367.23613452 84.625 363.625 C85.718125 363.13 86.81125 362.635 87.9375 362.125 C106.01249167 353.2014906 121.50509889 335.73701376 131.625 318.625 C131.955 317.635 132.285 316.645 132.625 315.625 C133.28048828 314.77808594 133.28048828 314.77808594 133.94921875 313.9140625 C151.33153128 290.17039084 154.85473494 256.64512325 154.875 228.25 C154.87567474 227.40085022 154.87634949 226.55170044 154.87704468 225.67681885 C154.86113473 213.07464954 154.37595655 200.96469287 151.625 188.625 C151.46402832 187.8314209 151.30305664 187.0378418 151.13720703 186.22021484 C148.35293828 172.58237971 143.46990096 160.22812741 137.625 147.625 C136.965 147.625 136.305 147.625 135.625 147.625 C134.965 145.975 134.305 144.325 133.625 142.625 C132.965 142.625 132.305 142.625 131.625 142.625 C131.55667969 141.60535156 131.48835938 140.58570313 131.41796875 139.53515625 C130.51790767 135.09692402 128.7656909 132.45494924 125.9375 129.0625 C125.45128174 128.4653418 124.96506348 127.86818359 124.46411133 127.25292969 C114.82396725 115.64649382 104.27739185 105.84986264 91.625 97.625 C90.72910156 97.04105469 89.83320312 96.45710938 88.91015625 95.85546875 C86.61732763 94.38795009 86.61732763 94.38795009 83.625 94.625 C83.625 93.965 83.625 93.305 83.625 92.625 C58.40783027 80.0536086 33.00320884 74.44883453 4.83984375 74.4921875 C3.44788089 74.49151223 2.05591815 74.49054036 0.66395569 74.48928833 C-2.22786603 74.48782625 -5.11965655 74.48992044 -8.01147461 74.49462891 C-11.72038483 74.50037375 -15.42922343 74.49700808 -19.13813114 74.49105644 C-22.00079392 74.48745134 -24.86343955 74.48858834 -27.72610283 74.49118423 C-29.09487352 74.49185116 -30.46364576 74.49103325 -31.83241463 74.48870468 C-33.73471167 74.48617387 -35.6370142 74.49071311 -37.53930664 74.49560547 C-38.6208754 74.49640106 -39.70244415 74.49719666 -40.81678772 74.49801636 C-43.36539443 74.45256347 -43.36539443 74.45256347 -45.375 75.625 C-44.88 195.91 -44.88 195.91 -44.375 318.625 C-47.39619872 320.13559936 -50.51536975 319.75841285 -53.8286438 319.74525452 C-54.6062276 319.74610894 -55.3838114 319.74696337 -56.18495834 319.74784368 C-58.80448095 319.74949783 -61.42394027 319.74397816 -64.04345703 319.73852539 C-65.9156494 319.73824348 -67.78784188 319.73840133 -69.66003418 319.7389679 C-74.7548042 319.73925572 -79.84955086 319.73336148 -84.94431543 319.72639394 C-90.26413512 319.72015783 -95.5839553 319.7195564 -100.90377808 319.71836853 C-110.98310095 319.71525598 -121.06241303 319.70704361 -131.14173114 319.69701904 C-142.61435102 319.68585555 -154.0869714 319.68034686 -165.55959535 319.67532361 C-189.16473623 319.66486094 -212.76986751 319.64726296 -236.375 319.625 C-236.51325699 320.3738295 -236.65151398 321.122659 -236.79396057 321.8941803 C-237.59030922 325.63692904 -238.96825857 329.12266358 -240.33984375 332.68359375 C-240.64439484 333.48315994 -240.94894592 334.28272614 -241.26272583 335.10652161 C-242.27509297 337.76015063 -243.29356879 340.41138512 -244.3125 343.0625 C-245.03128483 344.94038521 -245.74995119 346.81831577 -246.46850586 348.69628906 C-256.08075044 373.78042471 -265.89837531 398.7855039 -275.77734375 423.765625 C-276.12676529 424.64945862 -276.47618683 425.53329224 -276.8361969 426.44390869 C-278.48194887 430.60592785 -280.12966278 434.76714757 -281.78149414 438.92675781 C-282.36477494 440.39907711 -282.94802851 441.87140721 -283.53125 443.34375 C-283.92213051 444.32483734 -283.92213051 444.32483734 -284.32090759 445.32574463 C-285.79667961 449.05623381 -287.14160006 452.80761254 -288.375 456.625 C-289.48875 456.769375 -290.6025 456.91375 -291.75 457.0625 C-295.19642047 457.40872035 -295.19642047 457.40872035 -297.375 458.625 C-297.375 457.965 -297.375 457.305 -297.375 456.625 C-320.145 457.12 -320.145 457.12 -343.375 457.625 C-343.375 457.955 -343.375 458.285 -343.375 458.625 C-345.685 458.625 -347.995 458.625 -350.375 458.625 C-350.375 458.295 -350.375 457.965 -350.375 457.625 C-355.655 457.295 -360.935 456.965 -366.375 456.625 C-366.375 457.285 -366.375 457.945 -366.375 458.625 C-368.355 458.955 -370.335 459.285 -372.375 459.625 C-372.375 456.985 -372.375 454.345 -372.375 451.625 C-371.715 451.955 -371.055 452.285 -370.375 452.625 C-356.61392509 417.65164104 -342.91971795 382.65255552 -329.34619141 347.60595703 C-324.01064049 333.83147026 -318.64959371 320.0671725 -313.27145386 306.30926514 C-307.72360344 292.11438082 -302.22818797 277.89965498 -296.74942017 263.67797852 C-292.88596517 253.65211811 -288.99851778 243.63682711 -285.0390625 233.6484375 C-284.69083939 232.76961411 -284.34261627 231.89079071 -283.98384094 230.9853363 C-282.33441992 226.82568285 -280.68028434 222.66798361 -279.01928711 218.51293945 C-278.4307693 217.03338876 -277.8423059 215.55381643 -277.25390625 214.07421875 C-276.99014191 213.4189621 -276.72637756 212.76370544 -276.45462036 212.08859253 C-274.82915477 207.99135444 -273.5602 203.86778648 -272.375 199.625 C-272.045 198.965 -271.715 198.305 -271.375 197.625 C-266.79356964 187.03141075 -262.62169901 176.2605351 -258.37451172 165.53027344 C-257.14396304 162.42288558 -255.90996737 159.3168821 -254.67578125 156.2109375 C-250.19910576 144.92081326 -245.83668558 133.59568627 -241.59608459 122.21479797 C-238.48782214 113.88557191 -235.26017076 105.60847637 -231.97235107 97.34872437 C-230.35783369 93.29185278 -228.75125597 89.23183788 -227.14453125 85.171875 C-226.82315186 84.36006271 -226.50177246 83.54825043 -226.1706543 82.71183777 C-223.15817789 75.09368561 -220.19671317 67.45628562 -217.25 59.8125 C-214.15405511 51.78237652 -211.04243386 43.75922711 -207.8828125 35.75390625 C-207.58937958 35.01041428 -207.29594666 34.2669223 -206.99362183 33.50090027 C-205.57763446 29.91516494 -204.15919109 26.33041991 -202.73779297 22.74682617 C-202.22101509 21.44059781 -201.70425013 20.13436434 -201.1875 18.828125 C-200.74019531 17.70051758 -200.29289063 16.57291016 -199.83203125 15.41113281 C-197.92123428 10.51669593 -196.15669095 5.56752503 -194.375 0.625 C-129.60514271 -0.49766549 -64.77361812 -1.24080085 0 0 Z M-149.375 96.625 C-149.74560547 97.59171631 -150.11621094 98.55843262 -150.49804688 99.55444336 C-158.75065943 121.07447531 -167.06418995 142.56964825 -175.45681763 164.03546143 C-175.95192337 165.30181427 -175.95192337 165.30181427 -176.45703125 166.59375 C-176.78492645 167.43234558 -177.11282166 168.27094116 -177.45065308 169.13494873 C-179.6668342 174.8055007 -181.87359299 180.47964465 -184.07421875 186.15625 C-184.67227854 187.69832487 -185.27034165 189.24039845 -185.8684082 190.7824707 C-186.74108473 193.03266723 -187.6135527 195.28294299 -188.48519897 197.53353882 C-191.57527364 205.509079 -194.69963122 213.46819807 -197.9140625 221.39453125 C-198.19769653 222.09559494 -198.48133057 222.79665863 -198.77355957 223.51896667 C-200.11367926 226.82988059 -201.46067983 230.13763836 -202.82128906 233.44018555 C-203.29018555 234.59429932 -203.75908203 235.74841309 -204.2421875 236.9375 C-204.65581543 237.94425781 -205.06944336 238.95101562 -205.49560547 239.98828125 C-206.58592391 242.79417038 -206.58592391 242.79417038 -206.375 246.625 C-172.055 246.625 -137.735 246.625 -102.375 246.625 C-103.65261577 240.87572902 -104.91535164 235.60991297 -106.72265625 230.0703125 C-107.04779457 229.06797073 -107.04779457 229.06797073 -107.37950134 228.04537964 C-108.06161331 225.94563007 -108.74944404 223.84780832 -109.4375 221.75 C-109.90207267 220.32304031 -110.36626826 218.89595781 -110.83007812 217.46875 C-112.33260881 212.85003897 -113.8390885 208.23273449 -115.375 203.625 C-115.8432301 202.1657616 -116.30918884 200.70579365 -116.77368164 199.24536133 C-117.19400414 197.92433159 -117.19400414 197.92433159 -117.62281799 196.57661438 C-117.92388962 195.62965195 -118.22496124 194.68268951 -118.53515625 193.70703125 C-118.84448593 192.73465012 -119.15381561 191.76226898 -119.47251892 190.76042175 C-120.46103952 187.6528427 -121.44927311 184.54517246 -122.4375 181.4375 C-123.10740298 179.3313742 -123.77732463 177.22525433 -124.44726562 175.11914062 C-126.09006033 169.95449595 -127.73261936 164.78977636 -129.375 159.625 C-129.705 160.615 -130.035 161.605 -130.375 162.625 C-131.5646079 159.05617629 -131.73480455 155.73587966 -131.99609375 152 C-132.24732841 149.36509785 -132.24732841 149.36509785 -134.375 146.625 C-134.83203125 144.75097656 -134.83203125 144.75097656 -135.1875 142.515625 C-136.65097929 134.64370712 -139.08663456 127.03760632 -141.375 119.375 C-141.83110811 117.8334454 -142.28683993 116.29177942 -142.7421875 114.75 C-143.18195481 113.26552517 -143.62204758 111.7811467 -144.0625 110.296875 C-144.26464111 109.61550476 -144.46678223 108.93413452 -144.67504883 108.2321167 C-145.83853673 104.33796676 -147.06877763 100.47358439 -148.375 96.625 C-148.705 96.625 -149.035 96.625 -149.375 96.625 Z M-131.375 156.625 C-130.375 158.625 -130.375 158.625 -130.375 158.625 Z " fill="#151615" transform="translate(564.375,276.375)"/>
<path d="M0 0 C1.11256165 -0.00307663 2.22512329 -0.00615326 3.37139893 -0.00932312 C4.57753845 -0.0021376 5.78367798 0.00504791 7.02636719 0.01245117 C8.89769318 0.0131385 8.89769318 0.0131385 10.80682373 0.01383972 C13.45663917 0.01686585 16.10610942 0.02368898 18.75585938 0.03710938 C22.76534719 0.05718567 26.77464073 0.05762037 30.78417969 0.05737305 C65.86360991 0.10316507 65.86360991 0.10316507 70.57324219 3.24291992 C45.16324219 2.91291992 19.75324219 2.58291992 -6.42675781 2.24291992 C-6.42675781 83.42291992 -6.42675781 164.60291992 -6.42675781 248.24291992 C-68.79675781 248.24291992 -131.16675781 248.24291992 -195.42675781 248.24291992 C-194.93175781 247.25291992 -194.93175781 247.25291992 -194.42675781 246.24291992 C-133.04675781 246.24291992 -71.66675781 246.24291992 -8.42675781 246.24291992 C-8.4615625 228.65237305 -8.49636719 211.06182617 -8.53222656 192.93823242 C-8.54754606 181.82755403 -8.56211109 170.71688324 -8.57324219 159.60620117 C-8.57911614 153.7723793 -8.58517768 147.93855767 -8.59155273 142.10473633 C-8.59234398 141.37352369 -8.59313523 140.64231105 -8.59395045 139.88894045 C-8.60701182 128.07150578 -8.63067063 116.25411473 -8.6582162 104.43670596 C-8.68623346 92.31618602 -8.70292626 80.19568897 -8.7090233 68.07513797 C-8.71314741 60.59119336 -8.72619048 53.10737198 -8.75050721 45.62346528 C-8.76818351 39.89265342 -8.77013277 34.16192119 -8.76608086 28.43108749 C-8.76690981 26.07436105 -8.77292477 23.71763017 -8.78437424 21.3609314 C-8.79918788 18.15598297 -8.79575223 14.95157209 -8.78752136 11.74661255 C-8.79625989 10.80304685 -8.80499841 9.85948115 -8.81400174 8.88732255 C-8.80802859 8.03339193 -8.80205545 7.17946131 -8.7959013 6.29965401 C-8.79704046 5.55919936 -8.79817962 4.81874472 -8.7993533 4.05585206 C-7.88540556 -0.39112942 -3.6522223 -0.00531906 0 0 Z " fill="#060606" transform="translate(524.4267578125,346.757080078125)"/>
<path d="M0 0 C0.56936279 0.3312085 1.13872559 0.66241699 1.7253418 1.00366211 C4.26083746 2.11425112 5.65918594 2.15437931 8.39453125 1.94140625 C9.25739746 1.88460693 10.12026367 1.82780762 11.00927734 1.76928711 C11.93434082 1.70104736 12.8594043 1.63280762 13.8125 1.5625 C25.59911369 0.8403638 37.22369891 1.28050031 49 2 C49.33 1.34 49.66 0.68 50 0 C50 0.66 50 1.32 50 2 C50.969375 1.92894547 51.93875 1.85789093 52.9375 1.78468323 C62.63192369 1.1068004 72.28227333 0.86472052 82 0.90234375 C83.45686799 0.90421635 84.91373662 0.90563625 86.37060547 0.90663147 C90.14499756 0.91039054 93.91934915 0.92016151 97.69372559 0.93133545 C101.56924899 0.94169452 105.44477915 0.94615965 109.3203125 0.95117188 C116.88022649 0.96179206 124.4401075 0.97878543 132 1 C121.66871262 7.88752492 99.74552527 4.12389608 87.81640625 4.09765625 C85.30435718 4.09578774 82.79230774 4.09436588 80.28025818 4.09336853 C74.38399001 4.08996323 68.48774138 4.08211236 62.59148115 4.07201904 C54.02205986 4.0576744 45.45263191 4.05252403 36.8832016 4.04621124 C24.92211872 4.03656279 12.96108539 4.01738249 1 4 C1 26.44 1 48.88 1 72 C48.52 72 96.04 72 145 72 C145 72.33 145 72.66 145 73 C137.36468021 75.05333547 130.1933395 75.3053117 122.31030273 75.31884766 C120.94938065 75.32816267 119.58846419 75.33833364 118.22755432 75.34928894 C114.55879466 75.37642594 110.89007305 75.39168955 107.22123981 75.40471697 C103.37751611 75.42041942 99.5338693 75.4471867 95.69020081 75.4727478 C88.42317313 75.51941028 81.15613078 75.55621476 73.88903052 75.58942068 C65.61081796 75.62773097 57.33268286 75.67711761 49.05453575 75.72740483 C32.03641331 75.83053815 15.01824593 75.91985863 -2 76 C-2.04630689 66.53381062 -2.08186079 57.06766012 -2.10362434 47.60138226 C-2.11406888 43.20597526 -2.12824027 38.81064565 -2.15087891 34.4152832 C-2.17258344 30.17482045 -2.18456358 25.93443223 -2.18975449 21.69391823 C-2.19345454 20.07476439 -2.20067969 18.45561471 -2.21146011 16.83649254 C-2.22594339 14.5714875 -2.22797929 12.30679182 -2.22705078 10.04174805 C-2.231492 8.75157272 -2.23593323 7.4613974 -2.24050903 6.13212585 C-2 3 -2 3 0 0 Z " fill="#252421" transform="translate(463,658)"/>
<path d="M0 0 C0.95755188 0.01528748 1.91510376 0.03057495 2.90167236 0.04632568 C5.50252341 0.09054044 8.10267301 0.14779959 10.703125 0.2109375 C11.77743271 0.22827942 11.77743271 0.22827942 12.8734436 0.24597168 C17.77335668 0.39180287 22.05669224 1.31766281 26.75 2.625 C26.75 2.955 26.75 3.285 26.75 3.625 C25.61802248 3.62738835 24.48604496 3.62977671 23.31976509 3.63223743 C-4.18678162 3.69095605 -31.69324021 3.76679123 -59.19968987 3.86071491 C-72.50145293 3.90573632 -85.80316865 3.9451362 -99.10498047 3.97143555 C-110.69489567 3.99436437 -122.2847254 4.02770473 -133.87457287 4.07370156 C-140.01487391 4.09770299 -146.15508993 4.1163863 -152.29543686 4.12261391 C-158.06887964 4.12863358 -163.84210468 4.14851962 -169.61546707 4.17927551 C-171.73996218 4.18810601 -173.86448568 4.19176805 -175.98899841 4.19000816 C-178.87873471 4.18836946 -181.76779602 4.20493365 -184.65744019 4.22627258 C-185.50762313 4.22142501 -186.35780607 4.21657743 -187.23375213 4.21158296 C-189.79805351 4.20737361 -189.79805351 4.20737361 -193.25 4.625 C-193.91 5.615 -194.57 6.605 -195.25 7.625 C-195.25 5.315 -195.25 3.005 -195.25 0.625 C-130.18631972 -0.50275837 -65.06780887 -1.20253938 0 0 Z " fill="#272623" transform="translate(565.25,276.375)"/>
<path d="M0 0 C0.56936279 0.3312085 1.13872559 0.66241699 1.7253418 1.00366211 C4.26083746 2.11425112 5.65918594 2.15437931 8.39453125 1.94140625 C9.25739746 1.88460693 10.12026367 1.82780762 11.00927734 1.76928711 C11.93434082 1.70104736 12.8594043 1.63280762 13.8125 1.5625 C25.59911369 0.8403638 37.22369891 1.28050031 49 2 C49.33 1.34 49.66 0.68 50 0 C50 0.66 50 1.32 50 2 C50.969375 1.92894547 51.93875 1.85789093 52.9375 1.78468323 C62.63192369 1.1068004 72.28227333 0.86472052 82 0.90234375 C83.45686799 0.90421635 84.91373662 0.90563625 86.37060547 0.90663147 C90.14499756 0.91039054 93.91934915 0.92016151 97.69372559 0.93133545 C101.56924899 0.94169452 105.44477915 0.94615965 109.3203125 0.95117188 C116.88022649 0.96179206 124.4401075 0.97878543 132 1 C121.66871262 7.88752492 99.74552527 4.12389608 87.81640625 4.09765625 C85.30435718 4.09578774 82.79230774 4.09436588 80.28025818 4.09336853 C74.38399001 4.08996323 68.48774138 4.08211236 62.59148115 4.07201904 C54.02205986 4.0576744 45.45263191 4.05252403 36.8832016 4.04621124 C24.92211872 4.03656279 12.96108539 4.01738249 1 4 C1 22.81 1 41.62 1 61 C0.67 61 0.34 61 0 61 C-0.33 64.3 -0.66 67.6 -1 71 C-1.33 71 -1.66 71 -2 71 C-2.04631323 62.18573089 -2.08186401 53.37150358 -2.10362434 44.5571394 C-2.1140675 40.46440017 -2.12823636 36.3717441 -2.15087891 32.27905273 C-2.17258839 28.33036289 -2.18456462 24.38175311 -2.18975449 20.43300819 C-2.19345366 18.92549695 -2.20067711 17.41799014 -2.21146011 15.91051292 C-2.22595004 13.80116637 -2.22797902 11.69215188 -2.22705078 9.58276367 C-2.231492 8.38141281 -2.23593323 7.18006195 -2.24050903 5.94230652 C-2 3 -2 3 0 0 Z " fill="#3B3936" transform="translate(463,658)"/>
<path d="M0 0 C0.66 0 1.32 0 2 0 C2 0.99 2 1.98 2 3 C27.41 3 52.82 3 79 3 C79 2.34 79 1.68 79 1 C79.66 1 80.32 1 81 1 C81 2.65 81 4.3 81 6 C79.329375 6.2165625 79.329375 6.2165625 77.625 6.4375 C74.17857953 6.78372035 74.17857953 6.78372035 72 8 C72 7.34 72 6.68 72 6 C56.82 6.33 41.64 6.66 26 7 C26 7.33 26 7.66 26 8 C23.69 8 21.38 8 19 8 C19 7.67 19 7.34 19 7 C13.72 6.67 8.44 6.34 3 6 C3 6.66 3 7.32 3 8 C1.02 8.33 -0.96 8.66 -3 9 C-3 6.36 -3 3.72 -3 1 C-2.01 1.495 -2.01 1.495 -1 2 C-0.67 1.34 -0.34 0.68 0 0 Z " fill="#040303" transform="translate(195,727)"/>
<path d="M0 0 C0.33 0 0.66 0 1 0 C1.04898438 0.92683594 1.09796875 1.85367187 1.1484375 2.80859375 C1.22320313 4.00613281 1.29796875 5.20367187 1.375 6.4375 C1.44460938 7.63246094 1.51421875 8.82742188 1.5859375 10.05859375 C1.72257813 11.02925781 1.85921875 11.99992187 2 13 C2.66 13.33 3.32 13.66 4 14 C4.95219875 36.51027946 5.06763518 58.5394587 3 81 C2.67 81 2.34 81 2 81 C1.67 75.72 1.34 70.44 1 65 C1.33 65 1.66 65 2 65 C2 53.12 2 41.24 2 29 C1.67 29 1.34 29 1 29 C0.16220564 19.29056184 -0.12276617 9.73944972 0 0 Z " fill="#474440" transform="translate(792,459)"/>
<path d="M0 0 C0.99 0.33 1.98 0.66 3 1 C3 1.66 3 2.32 3 3 C29.73 3.33 56.46 3.66 84 4 C84 4.33 84 4.66 84 5 C82.329375 5.2165625 82.329375 5.2165625 80.625 5.4375 C77.17857953 5.78372035 77.17857953 5.78372035 75 7 C75 6.34 75 5.68 75 5 C59.82 5.33 44.64 5.66 29 6 C29 6.33 29 6.66 29 7 C26.69 7 24.38 7 22 7 C22 6.67 22 6.34 22 6 C16.72 5.67 11.44 5.34 6 5 C6 5.66 6 6.32 6 7 C4.02 7.33 2.04 7.66 0 8 C0 5.36 0 2.72 0 0 Z " fill="#74706A" transform="translate(192,728)"/>
<path d="M0 0 C0.66 0 1.32 0 2 0 C-0.07042054 7.60837466 -2.85830477 14.7728592 -6 22 C-6.66 21.01 -7.32 20.02 -8 19 C-7.390625 16.44140625 -7.390625 16.44140625 -6.25 13.5625 C-5.88390625 12.61503906 -5.5178125 11.66757812 -5.140625 10.69140625 C-4.17202894 8.40591759 -3.1419384 6.20230978 -2 4 C-1.62875 3.2575 -1.2575 2.515 -0.875 1.75 C-0.441875 0.88375 -0.441875 0.88375 0 0 Z " fill="#272524" transform="translate(404,397)"/>
<path d="M0 0 C0.33 0 0.66 0 1 0 C1.04898438 0.92683594 1.09796875 1.85367187 1.1484375 2.80859375 C1.22320313 4.00613281 1.29796875 5.20367187 1.375 6.4375 C1.44460938 7.63246094 1.51421875 8.82742188 1.5859375 10.05859375 C1.72257813 11.02925781 1.85921875 11.99992187 2 13 C2.66 13.33 3.32 13.66 4 14 C3.88623383 16.12563103 3.75864369 18.2505261 3.625 20.375 C3.52058594 22.15003906 3.52058594 22.15003906 3.4140625 23.9609375 C3 27 3 27 1 29 C0.16220564 19.29056184 -0.12276617 9.73944972 0 0 Z " fill="#34322D" transform="translate(792,459)"/>
<path d="M0 0 C0.66 0 1.32 0 2 0 C1.125 5.75 1.125 5.75 0 8 C-0.66 8 -1.32 8 -2 8 C-2 9.98 -2 11.96 -2 14 C-2.33 14 -2.66 14 -3 14 C-3.4021875 15.7015625 -3.4021875 15.7015625 -3.8125 17.4375 C-4.204375 18.613125 -4.59625 19.78875 -5 21 C-5.99 21.33 -6.98 21.66 -8 22 C-5.92957946 14.39162534 -3.14169523 7.2271408 0 0 Z " fill="#2C2B29" transform="translate(303,450)"/>
<path d="M0 0 C14.85 0 29.7 0 45 0 C45 0.33 45 0.66 45 1 C39.00115163 1.77028014 33.28389066 2.09919133 27.24609375 1.87890625 C26.45977066 1.85529526 25.67344757 1.83168427 24.86329651 1.80735779 C22.38780177 1.73167876 19.91269896 1.6472522 17.4375 1.5625 C15.74415887 1.50918301 14.05079945 1.45644355 12.35742188 1.40429688 C8.23804001 1.27619598 4.11898514 1.14025731 0 1 C0 0.67 0 0.34 0 0 Z " fill="#5B5751" transform="translate(520,734)"/>
<path d="M0 0 C4.43170173 1.51896368 8.03024076 3.92639809 11.8125 6.625 C12.40998047 7.04523438 13.00746094 7.46546875 13.62304688 7.8984375 C15.08520565 8.92779728 16.54304899 9.9632823 18 11 C14.265625 12.1015625 14.265625 12.1015625 11.875 11.1875 C10 10 10 10 8 8 C6.20429856 6.7434237 4.38508004 5.52773499 2.55859375 4.31640625 C1 3 1 3 0 0 Z " fill="#282724" transform="translate(690,308)"/>
<path d="M0 0 C0.33 0.99 0.66 1.98 1 3 C0.01 4.485 0.01 4.485 -1 6 C-1.66 6 -2.32 6 -3 6 C-3.2475 6.5775 -3.495 7.155 -3.75 7.75 C-5.16683317 10.3002997 -6.87627537 12.01785701 -9 14 C-9.99 13.67 -10.98 13.34 -12 13 C-8.19524578 8.43969176 -4.25030379 4.14910608 0 0 Z " fill="#2D2C2A" transform="translate(682,614)"/>
<path d="M0 0 C0.66 0.33 1.32 0.66 2 1 C1.67 2.65 1.34 4.3 1 6 C0.34 6 -0.32 6 -1 6 C-0.938125 6.845625 -0.87625 7.69125 -0.8125 8.5625 C-1.04491159 12.82337919 -2.00668056 15.23484105 -4 19 C-4.99 19.33 -5.98 19.66 -7 20 C-5.07443364 13.14381674 -2.7527517 6.56747868 0 0 Z " fill="#2E2C2B" transform="translate(221,660)"/>
<path d="M0 0 C1 2 1 2 0.37915039 4.15478516 C0.03875732 5.02409668 -0.30163574 5.8934082 -0.65234375 6.7890625 C-1.01650391 7.73007812 -1.38066406 8.67109375 -1.75585938 9.640625 C-2.14580078 10.62546875 -2.53574219 11.6103125 -2.9375 12.625 C-3.51661133 14.11386719 -3.51661133 14.11386719 -4.10742188 15.6328125 C-5.06481137 18.09129417 -6.02925759 20.54676682 -7 23 C-9 19.25 -9 19.25 -9 17 C-8.01 17 -7.02 17 -6 17 C-6.33 16.01 -6.66 15.02 -7 14 C-6.67 13.34 -6.34 12.68 -6 12 C-5.34 12 -4.68 12 -4 12 C-4.020625 11.05125 -4.04125 10.1025 -4.0625 9.125 C-4 6 -4 6 -3 4 C-2.34 4 -1.68 4 -1 4 C-1.33 3.01 -1.66 2.02 -2 1 C-1.34 0.67 -0.68 0.34 0 0 Z " fill="#2C2B29" transform="translate(314,630)"/>
<path d="M0 0 C0.66 0 1.32 0 2 0 C1.44915509 4.40675924 0.27611682 8.17953933 -1.37890625 12.265625 C-2.11238074 14.00677945 -2.11238074 14.00677945 -2 16 C-3.32 16.33 -4.64 16.66 -6 17 C-4.33846988 11.14340094 -2.52958084 5.5409866 0 0 Z " fill="#262523" transform="translate(202,709)"/>
<path d="M0 0 C0.33 0 0.66 0 1 0 C1.19658808 1.41543415 1.38187546 2.83244031 1.5625 4.25 C1.66691406 5.03890625 1.77132812 5.8278125 1.87890625 6.640625 C2.15342408 11.98929503 -0.3415151 15.54060597 -3 20 C-4.04940487 16.85178538 -3.98606526 16.0650509 -3.22265625 12.98828125 C-3.03896484 12.23095703 -2.85527344 11.47363281 -2.66601562 10.69335938 C-2.46685547 9.90767578 -2.26769531 9.12199219 -2.0625 8.3125 C-1.86720703 7.51521484 -1.67191406 6.71792969 -1.47070312 5.89648438 C-0.98771618 3.92919611 -0.4948037 1.96434946 0 0 Z " fill="#302E2C" transform="translate(717,539)"/>
<path d="M0 0 C1 2 1 2 -0.21484375 5.6953125 C-0.78133585 7.17485658 -1.35591889 8.65132181 -1.9375 10.125 C-2.22818359 10.87910156 -2.51886719 11.63320313 -2.81835938 12.41015625 C-3.53874998 14.27608602 -4.26850404 16.1383958 -5 18 C-6.10546875 16.34765625 -6.10546875 16.34765625 -7 14 C-6.42578125 11.30859375 -6.42578125 11.30859375 -5.3125 8.4375 C-4.95800781 7.48746094 -4.60351562 6.53742188 -4.23828125 5.55859375 C-3.06800303 3.140511 -2.02107182 1.72985109 0 0 Z " fill="#262524" transform="translate(396,420)"/>
<path d="M0 0 C5.70629354 0.42797202 9.41078616 2.84345952 14 6 C13.67 6.66 13.34 7.32 13 8 C10.26298813 6.98339559 7.86436009 5.91603244 5.375 4.375 C3.02467224 2.74948186 3.02467224 2.74948186 0 3 C0 2.01 0 1.02 0 0 Z " fill="#31302D" transform="translate(648,368)"/>
<path d="M0 0 C0.66 0 1.32 0 2 0 C0.41078475 5.36095277 -1.18972938 10.70843973 -3 16 C-5 13 -5 13 -4.6875 10.875 C-4 9 -4 9 -3 8 C-3.33 7.34 -3.66 6.68 -4 6 C-3.34 6 -2.68 6 -2 6 C-1.34 4.02 -0.68 2.04 0 0 Z " fill="#2E2D2B" transform="translate(280,715)"/>
<path d="M0 0 C1 2 1 2 0.00390625 5.0390625 C-0.47175781 6.22242188 -0.94742187 7.40578125 -1.4375 8.625 C-1.91058594 9.81351562 -2.38367188 11.00203125 -2.87109375 12.2265625 C-3.24363281 13.14179688 -3.61617188 14.05703125 -4 15 C-5.0546875 13.19140625 -5.0546875 13.19140625 -6 11 C-5.125 7.9375 -5.125 7.9375 -4 5 C-4 4.01 -4 3.02 -4 2 C-2.68 1.34 -1.36 0.68 0 0 Z " fill="#272624" transform="translate(388,441)"/>
<path d="M0 0 C2.25 0.0625 2.25 0.0625 5 1 C6.67849824 3.2308475 7.75999263 5.47405906 9 8 C8.34 8.66 7.68 9.32 7 10 C5 8 5 8 3.5 5.9375 C2.13712374 3.88794828 2.13712374 3.88794828 0 3 C0 2.01 0 1.02 0 0 Z " fill="#3A3835" transform="translate(696,416)"/>
<path d="M0 0 C0 0.66 0 1.32 0 2 C2.31 2.33 4.62 2.66 7 3 C3.02549507 4.51553092 -0.20481149 3.49888623 -4.25 2.5625 C-5.51328125 2.27503906 -6.7765625 1.98757813 -8.078125 1.69140625 C-9.04234375 1.46324219 -10.0065625 1.23507812 -11 1 C-6.8204355 -1.78637633 -4.85331323 -0.79562512 0 0 Z " fill="#3C3A37" transform="translate(603,350)"/>
<path d="M0 0 C0.66 0.99 1.32 1.98 2 3 C1.42578125 5.4453125 1.42578125 5.4453125 0.3125 8.125 C-0.21923828 9.45917969 -0.21923828 9.45917969 -0.76171875 10.8203125 C-2 13 -2 13 -5 14 C-3.45730076 9.27934033 -1.92205381 4.58335908 0 0 Z " fill="#292725" transform="translate(231,635)"/>
<path d="M0 0 C4.37975643 0.72204228 6.01847563 2.8218468 8.73828125 6.14453125 C10.26318449 8.38703601 10.83617701 10.29692069 11 13 C6.78185183 9.0299782 3.38772897 4.69159716 0 0 Z " fill="#2C2A28" transform="translate(681,394)"/>
<path d="M0 0 C2.91747073 0.1140575 5.83344495 0.24080268 8.75 0.375 C9.9875 0.42140625 9.9875 0.42140625 11.25 0.46875 C12.04921875 0.50742187 12.8484375 0.54609375 13.671875 0.5859375 C14.4050293 0.6173584 15.13818359 0.6487793 15.89355469 0.68115234 C18.24922918 1.03772523 19.93450591 1.83662883 22 3 C18.70849875 3.08685287 15.4172904 3.14033895 12.125 3.1875 C11.18785156 3.21263672 10.25070312 3.23777344 9.28515625 3.26367188 C8.38925781 3.27333984 7.49335937 3.28300781 6.5703125 3.29296875 C5.74289551 3.3086792 4.91547852 3.32438965 4.06298828 3.34057617 C3.38220215 3.22818604 2.70141602 3.1157959 2 3 C1.34 2.01 0.68 1.02 0 0 Z " fill="#514F49" transform="translate(588,278)"/>
<path d="M0 0 C2 3 2 3 1.8125 5 C0.886902 7.27839507 -0.1659633 8.38604771 -2 10 C-2.66 10.66 -3.32 11.32 -4 12 C-5.125 8.25 -5.125 8.25 -4 6 C-3 4.66666667 -2 3.33333333 -1 2 C-0.67 1.34 -0.34 0.68 0 0 Z " fill="#2B2928" transform="translate(701,586)"/>
<path d="M0 0 C1.27310312 0.93441535 2.543388 1.87267111 3.8125 2.8125 C4.52019531 3.33457031 5.22789062 3.85664063 5.95703125 4.39453125 C7.78531393 5.83128877 9.39896688 7.31815763 11 9 C10.67 9.66 10.34 10.32 10 11 C6.16853404 9.43903239 3.71851946 7.08588695 1 4 C0.35546875 1.8359375 0.35546875 1.8359375 0 0 Z " fill="#363430" transform="translate(721,330)"/>
<path d="M0 0 C0.33 0.99 0.66 1.98 1 3 C1.66 3 2.32 3 3 3 C3 4.98 3 6.96 3 9 C2.67 9 2.34 9 2 9 C1.67 10.98 1.34 12.96 1 15 C0.67 15 0.34 15 0 15 C-0.19390729 12.68802845 -0.37996367 10.3753971 -0.5625 8.0625 C-0.71912109 6.13083984 -0.71912109 6.13083984 -0.87890625 4.16015625 C-0.91886719 3.11730469 -0.95882812 2.07445312 -1 1 C-0.67 0.67 -0.34 0.34 0 0 Z " fill="#33312F" transform="translate(719,470)"/>
<path d="M0 0 C1.72357119 2.58535679 2.44735018 4.03811614 3.1875 6.9375 C3.36667969 7.60652344 3.54585937 8.27554687 3.73046875 8.96484375 C4.03268678 11.24680888 3.68756692 12.82026659 3 15 C2.34 14.67 1.68 14.34 1 14 C0.5859375 11.85546875 0.5859375 11.85546875 0.375 9.1875 C0.30023437 8.31480469 0.22546875 7.44210937 0.1484375 6.54296875 C0.02131298 4.36512507 0 2.18155077 0 0 Z " fill="#3B3935" transform="translate(787,438)"/>
<path d="M0 0 C0.66 0.33 1.32 0.66 2 1 C2.17563129 5.4785979 2.22085338 9.02584132 0 13 C-0.99 13.33 -1.98 13.66 -3 14 C-2.7834375 13.15695312 -2.566875 12.31390625 -2.34375 11.4453125 C-2.0653125 10.34960938 -1.786875 9.25390625 -1.5 8.125 C-1.2215625 7.03445313 -0.943125 5.94390625 -0.65625 4.8203125 C0.07554418 2.15794931 0.07554418 2.15794931 0 0 Z " fill="#2E2C2A" transform="translate(292,474)"/>
<path d="M0 0 C1 2 1 2 0.22265625 4.6015625 C-0.16019531 5.59929688 -0.54304688 6.59703125 -0.9375 7.625 C-1.50791016 9.12933594 -1.50791016 9.12933594 -2.08984375 10.6640625 C-2.39019531 11.43492187 -2.69054687 12.20578125 -3 13 C-4.40944669 10.72752255 -5.10681701 9.57574366 -4.609375 6.89453125 C-4.32578125 6.20746094 -4.0421875 5.52039063 -3.75 4.8125 C-3.47671875 4.11769531 -3.2034375 3.42289063 -2.921875 2.70703125 C-2 1 -2 1 0 0 Z " fill="#292827" transform="translate(319,617)"/>
<path d="M0 0 C1.15957207 3.47871621 0.77456651 4.34219645 -0.4375 7.6875 C-0.86869141 8.89986328 -0.86869141 8.89986328 -1.30859375 10.13671875 C-1.53675781 10.75160156 -1.76492188 11.36648438 -2 12 C-4 10 -4 10 -4.125 7.375 C-4.08375 6.59125 -4.0425 5.8075 -4 5 C-3.34 5 -2.68 5 -2 5 C-1.7834375 4.0409375 -1.7834375 4.0409375 -1.5625 3.0625 C-1 1 -1 1 0 0 Z " fill="#2B2927" transform="translate(786,575)"/>
<path d="M0 0 C0.33 0 0.66 0 1 0 C0.85786703 1.89611434 0.71113093 3.79188394 0.5625 5.6875 C0.48128906 6.74324219 0.40007813 7.79898438 0.31640625 8.88671875 C0.03548319 11.65086297 -0.40156852 14.28945741 -1 17 C-1.33 17 -1.66 17 -2 17 C-2.33 14.69 -2.66 12.38 -3 10 C-2.34 10 -1.68 10 -1 10 C-1.20625 8.72125 -1.4125 7.4425 -1.625 6.125 C-1.9765625 3.9453125 -1.9765625 3.9453125 -2 2 C-1.34 1.34 -0.68 0.68 0 0 Z " fill="#3A3834" transform="translate(793,541)"/>
<path d="M0 0 C-2.1755306 2.1755306 -3.55973892 2.71879553 -6.4375 3.6875 C-7.61119141 4.09548828 -7.61119141 4.09548828 -8.80859375 4.51171875 C-11 5 -11 5 -14 4 C-13.67 3.34 -13.34 2.68 -13 2 C-11.02 2.495 -11.02 2.495 -9 3 C-9 2.34 -9 1.68 -9 1 C-5.8035914 -0.06546953 -3.34252724 -0.07427838 0 0 Z " fill="#393733" transform="translate(661,719)"/>
<path d="M0 0 C7.59 0 15.18 0 23 0 C23 0.33 23 0.66 23 1 C15.36090727 2.38892595 7.06211632 3.53105816 0 0 Z " fill="#605C56" transform="translate(222,734)"/>
<path d="M0 0 C0.99 0.66 1.98 1.32 3 2 C1.5437455 2.67119549 0.08492133 3.33681807 -1.375 4 C-2.59316406 4.556875 -2.59316406 4.556875 -3.8359375 5.125 C-6 6 -6 6 -8 6 C-7 3 -7 3 -3.625 1.1875 C-2.42875 0.795625 -1.2325 0.40375 0 0 Z " fill="#302F2B" transform="translate(674,711)"/>
<path d="M0 0 C1 2 1 2 0.22265625 4.6015625 C-0.16019531 5.59929688 -0.54304688 6.59703125 -0.9375 7.625 C-1.50791016 9.12933594 -1.50791016 9.12933594 -2.08984375 10.6640625 C-2.39019531 11.43492187 -2.69054687 12.20578125 -3 13 C-4.94566951 9.52452927 -5.07637127 7.87493656 -4 4 C-3.01 4 -2.02 4 -1 4 C-1.33 3.01 -1.66 2.02 -2 1 C-1.34 0.67 -0.68 0.34 0 0 Z " fill="#2F2D2B" transform="translate(293,684)"/>
<path d="M0 0 C0.99 0.33 1.98 0.66 3 1 C3.94921875 3.06640625 3.94921875 3.06640625 4.6875 5.5625 C4.93886719 6.38878906 5.19023438 7.21507812 5.44921875 8.06640625 C5.63097656 8.70449219 5.81273437 9.34257812 6 10 C5.34 10.66 4.68 11.32 4 12 C3.3291288 10.3767313 2.66342971 8.75132422 2 7.125 C1.62875 6.22007812 1.2575 5.31515625 0.875 4.3828125 C0 2 0 2 0 0 Z " fill="#272624" transform="translate(704,426)"/>
<path d="M0 0 C1 2 1 2 0.22265625 4.6015625 C-0.16019531 5.59929687 -0.54304688 6.59703125 -0.9375 7.625 C-1.50791016 9.12933594 -1.50791016 9.12933594 -2.08984375 10.6640625 C-2.39019531 11.43492187 -2.69054687 12.20578125 -3 13 C-4.0546875 11.171875 -4.0546875 11.171875 -5 9 C-4.125 6.25 -4.125 6.25 -3 4 C-2.34 4 -1.68 4 -1 4 C-1.33 3.01 -1.66 2.02 -2 1 C-1.34 0.67 -0.68 0.34 0 0 Z " fill="#32312F" transform="translate(375,474)"/>
<path d="M0 0 C0.66 0.33 1.32 0.66 2 1 C1.54917531 2.46067199 1.08906463 3.91848032 0.625 5.375 C0.36976563 6.18710937 0.11453125 6.99921875 -0.1484375 7.8359375 C-1 10 -1 10 -3 12 C-2.49202991 7.6822542 -1.80317221 3.96697886 0 0 Z " fill="#302E2B" transform="translate(776,600)"/>
<path d="M0 0 C2.1640625 0.77734375 2.1640625 0.77734375 4.625 1.9375 C5.44226563 2.31777344 6.25953125 2.69804687 7.1015625 3.08984375 C7.72804688 3.39019531 8.35453125 3.69054687 9 4 C8.67 4.66 8.34 5.32 8 6 C4.08788267 4.84414715 1.1254959 3.64465038 -2 1 C-1.34 0.67 -0.68 0.34 0 0 Z " fill="#302F2C" transform="translate(640,362)"/>
<path d="M0 0 C-0.33 0.99 -0.66 1.98 -1 3 C-4.69541586 3.95024979 -7.30458414 3.95024979 -11 3 C-7.25667087 0.99464511 -4.26323685 0 0 0 Z " fill="#3D3C39" transform="translate(620,654)"/>
<path d="M0 0 C1 2 1 2 0.22265625 4.3828125 C-0.16019531 5.28773438 -0.54304688 6.19265625 -0.9375 7.125 C-1.31777344 8.03507813 -1.69804687 8.94515625 -2.08984375 9.8828125 C-2.39019531 10.58148437 -2.69054687 11.28015625 -3 12 C-3.33 12 -3.66 12 -4 12 C-3.91253716 10.56138706 -3.80434652 9.12402492 -3.6875 7.6875 C-3.62949219 6.88699219 -3.57148438 6.08648438 -3.51171875 5.26171875 C-2.91793306 2.63727666 -2.04219706 1.69179328 0 0 Z " fill="#31302E" transform="translate(324,605)"/>
<path d="M0 0 C0.99 0.33 1.98 0.66 3 1 C2.67 2.32 2.34 3.64 2 5 C3.32 5 4.64 5 6 5 C6 5.66 6 6.32 6 7 C4.02 7.33 2.04 7.66 0 8 C0 5.36 0 2.72 0 0 Z " fill="#686259" transform="translate(192,728)"/>
<path d="M0 0 C-3.82517513 2.39073445 -7.59665524 2.55966552 -12 3 C-11.34 2.67 -10.68 2.34 -10 2 C-10 1.34 -10 0.68 -10 0 C-6.42355152 -1.2380014 -3.66305234 -0.74926071 0 0 Z " fill="#3E3B39" transform="translate(643,725)"/>
<path d="M0 0 C0.66 0.33 1.32 0.66 2 1 C1.01 3.97 0.02 6.94 -1 10 C-3 7 -3 7 -2.625 4.3125 C-2.41875 3.549375 -2.2125 2.78625 -2 2 C-1.34 2 -0.68 2 0 2 C0 1.34 0 0.68 0 0 Z " fill="#292826" transform="translate(284,704)"/>
<path d="M0 0 C-1.50223584 4.20626034 -4.28550034 5.73900021 -8 8 C-7.65978036 4.82461668 -6.97533396 3.97723135 -4.5625 1.75 C-2 0 -2 0 0 0 Z " fill="#2B2A27" transform="translate(715,686)"/>
<path d="M0 0 C2.64 1.98 5.28 3.96 8 6 C6.68 6.33 5.36 6.66 4 7 C1.75 5.25 1.75 5.25 0 3 C0 2.01 0 1.02 0 0 Z " fill="#32302D" transform="translate(709,320)"/>
<path d="M0 0 C1 3 1 3 0.25 5.625 C-1 8 -1 8 -4 9 C-2.25 2.25 -2.25 2.25 0 0 Z " fill="#242321" transform="translate(218,671)"/>
<path d="M0 0 C1.80125336 2.70188004 3.00243753 4.93057703 4 8 C3.67 8.99 3.34 9.98 3 11 C3 10.34 3 9.68 3 9 C2.34 9 1.68 9 1 9 C-1.125 3.375 -1.125 3.375 0 0 Z " fill="#353431" transform="translate(781,419)"/>
<path d="M0 0 C3 1 3 1 4.75 3.9375 C5.1625 4.948125 5.575 5.95875 6 7 C5.67 7.66 5.34 8.32 5 9 C1.9083091 6.47043472 1.09068668 3.77545388 0 0 Z " fill="#2E2C29" transform="translate(766,388)"/>
<path d="M0 0 C7.42857143 -0.14285714 7.42857143 -0.14285714 11 1 C11 1.99 11 2.98 11 4 C7.37 3.01 3.74 2.02 0 1 C0 0.67 0 0.34 0 0 Z " fill="#383634" transform="translate(619,356)"/>
<path d="M0 0 C-5.2734375 3.22265625 -5.2734375 3.22265625 -7 4 C-7.66 3.67 -8.32 3.34 -9 3 C-5.83583464 -0.30799106 -4.50236011 -1.35070803 0 0 Z " fill="#3A3836" transform="translate(686,708)"/>
<path d="M0 0 C0.33 0 0.66 0 1 0 C1.25 6.625 1.25 6.625 -1 10 C-1.66 10 -2.32 10 -3 10 C-2.01 6.7 -1.02 3.4 0 0 Z " fill="#33312F" transform="translate(213,680)"/>
<path d="M0 0 C0.66 0.33 1.32 0.66 2 1 C1.66666667 2.33333333 1.33333333 3.66666667 1 5 C0.87625 5.721875 0.7525 6.44375 0.625 7.1875 C0.41875 7.785625 0.2125 8.38375 0 9 C-0.99 9.33 -1.98 9.66 -3 10 C-2.01 6.7 -1.02 3.4 0 0 Z " fill="#353432" transform="translate(353,321)"/>
<path d="M0 0 C0.66 0 1.32 0 2 0 C1.50168276 3.68754757 0.89932357 5.60490662 -2 8 C-2.33 7.34 -2.66 6.68 -3 6 C-2.06553465 3.96855359 -1.06775224 1.96466413 0 0 Z " fill="#2C2B2A" transform="translate(707,574)"/>
<path d="M0 0 C1 2 1 2 0.44140625 3.9453125 C0.15136719 4.66460937 -0.13867188 5.38390625 -0.4375 6.125 C-0.72496094 6.84945313 -1.01242187 7.57390625 -1.30859375 8.3203125 C-1.53675781 8.87460937 -1.76492188 9.42890625 -2 10 C-3.125 8.3125 -3.125 8.3125 -4 6 C-3.25 3.3125 -3.25 3.3125 -2 1 C-1.34 0.67 -0.68 0.34 0 0 Z " fill="#31302E" transform="translate(396,420)"/>
<path d="M0 0 C0.99 0 1.98 0 3 0 C3 1.65 3 3.3 3 5 C2.34 5 1.68 5 1 5 C0.34 5.66 -0.32 6.32 -1 7 C-1.33 6.01 -1.66 5.02 -2 4 C-1.34 4 -0.68 4 0 4 C-0.33 3.01 -0.66 2.02 -1 1 C-0.67 0.67 -0.34 0.34 0 0 Z " fill="#373635" transform="translate(414,371)"/>
<path d="M0 0 C1.42944945 2.35438733 2.08661261 3.48032433 1.625 6.25 C1.41875 6.8275 1.2125 7.405 1 8 C0.01 7.67 -0.98 7.34 -2 7 C-1.34 4.69 -0.68 2.38 0 0 Z " fill="#2A2928" transform="translate(356,314)"/>
<path d="M0 0 C5.61 0 11.22 0 17 0 C17 0.33 17 0.66 17 1 C11.39 1 5.78 1 0 1 C0 0.67 0 0.34 0 0 Z " fill="#5A5650" transform="translate(566,734)"/>
<path d="M0 0 C0.99 0.66 1.98 1.32 3 2 C2.75 3.875 2.75 3.875 2 6 C-0.0625 7.25 -0.0625 7.25 -2 8 C-1.34 5.36 -0.68 2.72 0 0 Z " fill="#2A2927" transform="translate(208,693)"/>
<path d="M0 0 C0.99 0.33 1.98 0.66 3 1 C3.625 3.3125 3.625 3.3125 4 6 C3.01 7.485 3.01 7.485 2 9 C1.34 6.03 0.68 3.06 0 0 Z " fill="#34322F" transform="translate(453,493)"/>
<path d="M0 0 C3.37503669 1.1858237 5.64722731 2.27573689 8 5 C5.125 4.75 5.125 4.75 2 4 C0.625 1.9375 0.625 1.9375 0 0 Z " fill="#383632" transform="translate(690,308)"/>
<path d="M0 0 C1.125 1.6875 1.125 1.6875 2 4 C1.125 6.75 1.125 6.75 0 9 C-0.66 8.67 -1.32 8.34 -2 8 C-1.125 2.25 -1.125 2.25 0 0 Z " fill="#2E2D2B" transform="translate(363,296)"/>
<path d="M0 0 C3.3 0 6.6 0 10 0 C10 0.33 10 0.66 10 1 C6.7 1 3.4 1 0 1 C0 0.67 0 0.34 0 0 Z " fill="#5C5853" transform="translate(499,734)"/>
<path d="M0 0 C0.86625 0.556875 0.86625 0.556875 1.75 1.125 C-0.89 1.125 -3.53 1.125 -6.25 1.125 C-2.80384615 -1.09038462 -2.80384615 -1.09038462 0 0 Z " fill="#625C54" transform="translate(501.25,274.875)"/>
<path d="M0 0 C2.31 0 4.62 0 7 0 C7 0.33 7 0.66 7 1 C4.69 1.33 2.38 1.66 0 2 C0 1.34 0 0.68 0 0 Z " fill="#615C55" transform="translate(462,734)"/>
<path d="M0 0 C2 3 2 3 2 5 C1.34 5 0.68 5 0 5 C-0.33 4.01 -0.66 3.02 -1 2 C-0.67 1.34 -0.34 0.68 0 0 Z " fill="#4E4C49" transform="translate(441,461)"/>
<path d="M0 0 C2.31 0 4.62 0 7 0 C7 0.33 7 0.66 7 1 C4.69 1 2.38 1 0 1 C0 0.67 0 0.34 0 0 Z " fill="#605A55" transform="translate(246,734)"/>
<path d="M0 0 C1.98 0 3.96 0 6 0 C6 0.33 6 0.66 6 1 C4.02 1 2.04 1 0 1 C0 0.67 0 0.34 0 0 Z " fill="#544E4A" transform="translate(576,351)"/>
<path d="M0 0 C1.65 0 3.3 0 5 0 C5 0.33 5 0.66 5 1 C3.35 1 1.7 1 0 1 C0 0.67 0 0.34 0 0 Z " fill="#5A5651" transform="translate(512,734)"/>
<path d="M0 0 C1.65 0 3.3 0 5 0 C5 0.33 5 0.66 5 1 C3.35 1 1.7 1 0 1 C0 0.67 0 0.34 0 0 Z " fill="#5E5A54" transform="translate(488,734)"/>
<path d="M0 0 C1.65 0 3.3 0 5 0 C5 0.33 5 0.66 5 1 C3.35 1 1.7 1 0 1 C0 0.67 0 0.34 0 0 Z " fill="#615D57" transform="translate(254,734)"/>
<path d="M0 0 C1.65 0 3.3 0 5 0 C5 0.33 5 0.66 5 1 C3.35 1 1.7 1 0 1 C0 0.67 0 0.34 0 0 Z " fill="#655F58" transform="translate(200,734)"/>
<path d="M0 0 C1.65 0 3.3 0 5 0 C5 0.33 5 0.66 5 1 C3.35 1 1.7 1 0 1 C0 0.67 0 0.34 0 0 Z " fill="#585450" transform="translate(592,657)"/>
<path d="M0 0 C1.98 0.99 1.98 0.99 4 2 C2.68 2 1.36 2 0 2 C0 1.34 0 0.68 0 0 Z " fill="#5B5954" transform="translate(432,520)"/>
<path d="M0 0 C1.65 0 3.3 0 5 0 C5 0.33 5 0.66 5 1 C3.35 1 1.7 1 0 1 C0 0.67 0 0.34 0 0 Z " fill="#5E5B53" transform="translate(558,275)"/>
<path d="M0 0 C1.65 0 3.3 0 5 0 C5 0.33 5 0.66 5 1 C3.35 1 1.7 1 0 1 C0 0.67 0 0.34 0 0 Z " fill="#615C53" transform="translate(516,275)"/>
<path d="M0 0 C1.65 0 3.3 0 5 0 C5 0.33 5 0.66 5 1 C3.35 1 1.7 1 0 1 C0 0.67 0 0.34 0 0 Z " fill="#625D54" transform="translate(470,275)"/>
<path d="M0 0 C1.65 0 3.3 0 5 0 C5 0.33 5 0.66 5 1 C3.35 1 1.7 1 0 1 C0 0.67 0 0.34 0 0 Z " fill="#615C53" transform="translate(438,275)"/>
<path d="M0 0 C1.65 0 3.3 0 5 0 C5 0.33 5 0.66 5 1 C3.35 1 1.7 1 0 1 C0 0.67 0 0.34 0 0 Z " fill="#615C53" transform="translate(424,275)"/>
<path d="M0 0 C4 1 4 1 4 1 Z " fill="#5D5855" transform="translate(494,734)"/>
<path d="M0 0 C4 1 4 1 4 1 Z " fill="#5E5B55" transform="translate(481,734)"/>
<path d="M0 0 C4 1 4 1 4 1 Z " fill="#625D57" transform="translate(262,734)"/>
<path d="M0 0 C0.66 0 1.32 0 2 0 C2 0.66 2 1.32 2 2 C1.34 2 0.68 2 0 2 C0 1.34 0 0.68 0 0 Z " fill="#5B5651" transform="translate(371,597)"/>
<path d="M0 0 C0.66 0.66 1.32 1.32 2 2 C1.01 1.67 0.02 1.34 -1 1 C-0.67 0.67 -0.34 0.34 0 0 Z " fill="#595651" transform="translate(441,520)"/>
<path d="M0 0 C1.485 0.99 1.485 0.99 3 2 C2.01 2 1.02 2 0 2 C0 1.34 0 0.68 0 0 Z " fill="#5C5A54" transform="translate(392,520)"/>
<path d="M0 0 C0.66 0.66 1.32 1.32 2 2 C1.01 2.495 1.01 2.495 0 3 C0 2.01 0 1.02 0 0 Z " fill="#504D48" transform="translate(696,420)"/>
<path d="M0 0 C1 4 1 4 1 4 Z " fill="#4F4D49" transform="translate(426,413)"/>
<path d="M0 0 C0.99 1.485 0.99 1.485 2 3 C1.34 3 0.68 3 0 3 C0 2.01 0 1.02 0 0 Z " fill="#4D4A45" transform="translate(420,394)"/>
<path d="M0 0 C0.66 0.66 1.32 1.32 2 2 C1.01 2.495 1.01 2.495 0 3 C0 2.01 0 1.02 0 0 Z " fill="#57544D" transform="translate(328,368)"/>
<path d="M0 0 C3 1 3 1 3 1 Z " fill="#5E5C55" transform="translate(474,734)"/>
<path d="M0 0 C3 1 3 1 3 1 Z " fill="#655F59" transform="translate(206,734)"/>
<path d="M0 0 C3 1 3 1 3 1 Z " fill="#5A564F" transform="translate(601,733)"/>
<path d="" fill="#5C5751" transform="translate(0,0)"/>
<path d="" fill="#534F4B" transform="translate(0,0)"/>
<path d="M0 0 C3 1 3 1 3 1 Z " fill="#5C5A55" transform="translate(401,521)"/>
<path d="M0 0 C3 1 3 1 3 1 Z " fill="#5A5852" transform="translate(397,521)"/>
<path d="M0 0 C0.66 0.66 1.32 1.32 2 2 C1.34 2 0.68 2 0 2 C0 1.34 0 0.68 0 0 Z " fill="#585550" transform="translate(368,520)"/>
<path d="" fill="#4E4B48" transform="translate(0,0)"/>
<path d="" fill="#4F4C49" transform="translate(0,0)"/>
<path d="M0 0 C0.66 0 1.32 0 2 0 C1.67 0.66 1.34 1.32 1 2 C0.67 1.34 0.34 0.68 0 0 Z " fill="#55534E" transform="translate(288,480)"/>
<path d="" fill="#5C5750" transform="translate(0,0)"/>
<path d="" fill="#54504B" transform="translate(0,0)"/>
<path d="" fill="#534F4C" transform="translate(0,0)"/>
<path d="" fill="#4F4A48" transform="translate(0,0)"/>
<path d="M0 0 C0.66 0.66 1.32 1.32 2 2 C1.34 2 0.68 2 0 2 C0 1.34 0 0.68 0 0 Z " fill="#524E4A" transform="translate(681,396)"/>
<path d="" fill="#4C4944" transform="translate(0,0)"/>
<path d="" fill="#4B4945" transform="translate(0,0)"/>
<path d="M0 0 C3 1 3 1 3 1 Z " fill="#524F48" transform="translate(632,363)"/>
<path d="M0 0 C3 1 3 1 3 1 Z " fill="#4F4C46" transform="translate(616,357)"/>
<path d="M0 0 C3 1 3 1 3 1 Z " fill="#56524E" transform="translate(552,351)"/>
<path d="M0 0 C3 1 3 1 3 1 Z " fill="#605B54" transform="translate(542,275)"/>
<path d="M0 0 C3 1 3 1 3 1 Z " fill="#5F5B53" transform="translate(536,275)"/>
<path d="M0 0 C3 1 3 1 3 1 Z " fill="#615C53" transform="translate(512,275)"/>
<path d="M0 0 C3 1 3 1 3 1 Z " fill="#625E56" transform="translate(484,275)"/>
<path d="M0 0 C3 1 3 1 3 1 Z " fill="#635F56" transform="translate(480,275)"/>
<path d="M0 0 C3 1 3 1 3 1 Z " fill="#625D56" transform="translate(462,275)"/>
<path d="M0 0 C3 1 3 1 3 1 Z " fill="#615B52" transform="translate(452,275)"/>
<path d="M0 0 C3 1 3 1 3 1 Z " fill="#605B52" transform="translate(432,275)"/>
<path d="M0 0 C3 1 3 1 3 1 Z " fill="#625E55" transform="translate(408,275)"/>
<path d="M0 0 C2 1 2 1 2 1 Z " fill="#5D5851" transform="translate(593,734)"/>
<path d="M0 0 C2 1 2 1 2 1 Z " fill="#5C5852" transform="translate(587,734)"/>
<path d="M0 0 C2 1 2 1 2 1 Z " fill="#5C5850" transform="translate(584,734)"/>
<path d="M0 0 C2 1 2 1 2 1 Z " fill="#5F5B55" transform="translate(478,734)"/>
<path d="M0 0 C2 1 2 1 2 1 Z " fill="#605C56" transform="translate(470,734)"/>
<path d="M0 0 C2 1 2 1 2 1 Z " fill="#625E58" transform="translate(270,734)"/>
<path d="M0 0 C2 1 2 1 2 1 Z " fill="#645F59" transform="translate(211,734)"/>
<path d="M0 0 C2 1 2 1 2 1 Z " fill="#5D5951" transform="translate(612,732)"/>
<path d="M0 0 C2 1 2 1 2 1 Z " fill="#5D574E" transform="translate(277,731)"/>
<path d="M0 0 C2 1 2 1 2 1 Z " fill="#5A564F" transform="translate(643,726)"/>
<path d="" fill="#5B564F" transform="translate(0,0)"/>
<path d="" fill="#54504B" transform="translate(0,0)"/>
<path d="M0 0 C2 1 2 1 2 1 Z " fill="#5B5853" transform="translate(518,658)"/>
<path d="M0 0 C2 1 2 1 2 1 Z " fill="#5A5651" transform="translate(600,656)"/>
<path d="" fill="#55534D" transform="translate(0,0)"/>
<path d="" fill="#55524C" transform="translate(0,0)"/>
<path d="" fill="#56534F" transform="translate(0,0)"/>
<path d="M0 0 C2 1 2 1 2 1 Z " fill="#54504B" transform="translate(680,609)"/>
<path d="M0 0 C2 1 2 1 2 1 Z " fill="#595651" transform="translate(387,598)"/>
<path d="M0 0 C2 1 2 1 2 1 Z " fill="#5B5852" transform="translate(480,597)"/>
<path d="M0 0 C2 1 2 1 2 1 Z " fill="#5B5852" transform="translate(376,597)"/>
<path d="" fill="#57524F" transform="translate(0,0)"/>
<path d="M0 0 C2 1 2 1 2 1 Z " fill="#585651" transform="translate(446,521)"/>
<path d="M0 0 C2 1 2 1 2 1 Z " fill="#5E5B56" transform="translate(417,521)"/>
<path d="M0 0 C2 1 2 1 2 1 Z " fill="#5E5C55" transform="translate(410,521)"/>
<path d="" fill="#504D49" transform="translate(0,0)"/>
<path d="" fill="#504F4A" transform="translate(0,0)"/>
<path d="" fill="#504C4A" transform="translate(0,0)"/>
<path d="M0 0 C2 1 2 1 2 1 Z " fill="#57524E" transform="translate(288,474)"/>
<path d="" fill="#504C49" transform="translate(0,0)"/>
<path d="" fill="#54514D" transform="translate(0,0)"/>
<path d="" fill="#514D4C" transform="translate(0,0)"/>
<path d="" fill="#4E4A46" transform="translate(0,0)"/>
<path d="" fill="#4E4C47" transform="translate(0,0)"/>
<path d="M0 0 C2 1 2 1 2 1 Z " fill="#514E49" transform="translate(705,436)"/>
<path d="M0 0 C2 1 2 1 2 1 Z " fill="#504E4B" transform="translate(397,423)"/>
<path d="" fill="#504E4A" transform="translate(0,0)"/>
<path d="" fill="#504D4A" transform="translate(0,0)"/>
<path d="" fill="#524F4B" transform="translate(0,0)"/>
<path d="" fill="#4E4946" transform="translate(0,0)"/>
<path d="" fill="#58534E" transform="translate(0,0)"/>
<path d="" fill="#4E4A47" transform="translate(0,0)"/>
<path d="" fill="#514D4B" transform="translate(0,0)"/>
<path d="M0 0 C2 1 2 1 2 1 Z " fill="#544F48" transform="translate(612,356)"/>
<path d="M0 0 C2 1 2 1 2 1 Z " fill="#53504A" transform="translate(608,355)"/>
<path d="M0 0 C2 1 2 1 2 1 Z " fill="#55524D" transform="translate(572,351)"/>
<path d="M0 0 C2 1 2 1 2 1 Z " fill="#54514E" transform="translate(564,351)"/>
<path d="M0 0 C2 1 2 1 2 1 Z " fill="#54504D" transform="translate(524,351)"/>
<path d="M0 0 C2 1 2 1 2 1 Z " fill="#5E5851" transform="translate(734,336)"/>
<path d="" fill="#5B554F" transform="translate(0,0)"/>
<path d="" fill="#56524D" transform="translate(0,0)"/>
<path d="M0 0 C2 1 2 1 2 1 Z " fill="#5B564E" transform="translate(633,283)"/>
<path d="" fill="#666158" transform="translate(0,0)"/>
<path d="M0 0 C2 1 2 1 2 1 Z " fill="#625D55" transform="translate(525,275)"/>
<path d="M0 0 C2 1 2 1 2 1 Z " fill="#625F56" transform="translate(421,275)"/>
<path d="M0 0 C2 1 2 1 2 1 Z " fill="#635E54" transform="translate(413,275)"/>
<path d="M0 0 C2 1 2 1 2 1 Z " fill="#625D55" transform="translate(397,275)"/>
<path d="" fill="#9C8963" transform="translate(0,0)"/>
<path d="" fill="#7D735A" transform="translate(0,0)"/>
<path d="" fill="#615C55" transform="translate(0,0)"/>
<path d="" fill="#5E5A52" transform="translate(0,0)"/>
<path d="" fill="#5D5952" transform="translate(0,0)"/>
<path d="" fill="#5E5A53" transform="translate(0,0)"/>
<path d="" fill="#5C5851" transform="translate(0,0)"/>
<path d="" fill="#5B5752" transform="translate(0,0)"/>
<path d="" fill="#605C56" transform="translate(0,0)"/>
<path d="" fill="#625F56" transform="translate(0,0)"/>
<path d="" fill="#625E59" transform="translate(0,0)"/>
<path d="" fill="#5C5750" transform="translate(0,0)"/>
<path d="" fill="#605A54" transform="translate(0,0)"/>
<path d="" fill="#5D5950" transform="translate(0,0)"/>
<path d="" fill="#5E5651" transform="translate(0,0)"/>
<path d="" fill="#5F5A52" transform="translate(0,0)"/>
<path d="" fill="#575148" transform="translate(0,0)"/>
<path d="" fill="#58524E" transform="translate(0,0)"/>
<path d="" fill="#5D5C54" transform="translate(0,0)"/>
<path d="" fill="#5B5652" transform="translate(0,0)"/>
<path d="" fill="#58534D" transform="translate(0,0)"/>
<path d="" fill="#58534E" transform="translate(0,0)"/>
<path d="" fill="#5C5751" transform="translate(0,0)"/>
<path d="" fill="#5D5852" transform="translate(0,0)"/>
<path d="" fill="#57534F" transform="translate(0,0)"/>
<path d="" fill="#585450" transform="translate(0,0)"/>
<path d="" fill="#55554E" transform="translate(0,0)"/>
<path d="" fill="#59554F" transform="translate(0,0)"/>
<path d="" fill="#5E5950" transform="translate(0,0)"/>
<path d="" fill="#56514F" transform="translate(0,0)"/>
<path d="" fill="#5A574F" transform="translate(0,0)"/>
<path d="" fill="#595550" transform="translate(0,0)"/>
<path d="" fill="#524F4C" transform="translate(0,0)"/>
<path d="" fill="#57534C" transform="translate(0,0)"/>
<path d="" fill="#5A5852" transform="translate(0,0)"/>
<path d="" fill="#5A5851" transform="translate(0,0)"/>
<path d="" fill="#5B5951" transform="translate(0,0)"/>
<path d="" fill="#5C5854" transform="translate(0,0)"/>
<path d="" fill="#595650" transform="translate(0,0)"/>
<path d="" fill="#5B5851" transform="translate(0,0)"/>
<path d="" fill="#565550" transform="translate(0,0)"/>
<path d="" fill="#54504C" transform="translate(0,0)"/>
<path d="" fill="#56514C" transform="translate(0,0)"/>
<path d="" fill="#56524E" transform="translate(0,0)"/>
<path d="" fill="#53504B" transform="translate(0,0)"/>
<path d="" fill="#57554D" transform="translate(0,0)"/>
<path d="" fill="#56534C" transform="translate(0,0)"/>
<path d="" fill="#56504E" transform="translate(0,0)"/>
<path d="" fill="#52514C" transform="translate(0,0)"/>
<path d="" fill="#5B574E" transform="translate(0,0)"/>
<path d="" fill="#57544F" transform="translate(0,0)"/>
<path d="" fill="#57544D" transform="translate(0,0)"/>
<path d="" fill="#524F4A" transform="translate(0,0)"/>
<path d="" fill="#53504C" transform="translate(0,0)"/>
<path d="" fill="#55504A" transform="translate(0,0)"/>
<path d="" fill="#54514B" transform="translate(0,0)"/>
<path d="" fill="#5A5652" transform="translate(0,0)"/>
<path d="" fill="#5C564E" transform="translate(0,0)"/>
<path d="" fill="#544F4D" transform="translate(0,0)"/>
<path d="" fill="#52504C" transform="translate(0,0)"/>
<path d="" fill="#55514E" transform="translate(0,0)"/>
<path d="" fill="#514F49" transform="translate(0,0)"/>
<path d="" fill="#5A544E" transform="translate(0,0)"/>
<path d="" fill="#5D5551" transform="translate(0,0)"/>
<path d="" fill="#565049" transform="translate(0,0)"/>
<path d="" fill="#56514D" transform="translate(0,0)"/>
<path d="" fill="#534F4A" transform="translate(0,0)"/>
<path d="" fill="#5D5651" transform="translate(0,0)"/>
<path d="" fill="#54514B" transform="translate(0,0)"/>
<path d="" fill="#55504C" transform="translate(0,0)"/>
<path d="" fill="#57514D" transform="translate(0,0)"/>
<path d="" fill="#56534D" transform="translate(0,0)"/>
<path d="" fill="#55504D" transform="translate(0,0)"/>
<path d="" fill="#56524F" transform="translate(0,0)"/>
<path d="" fill="#5A554F" transform="translate(0,0)"/>
<path d="" fill="#58554F" transform="translate(0,0)"/>
<path d="" fill="#56534D" transform="translate(0,0)"/>
<path d="" fill="#5D5852" transform="translate(0,0)"/>
<path d="" fill="#54504A" transform="translate(0,0)"/>
<path d="" fill="#5C5752" transform="translate(0,0)"/>
<path d="" fill="#5C5752" transform="translate(0,0)"/>
<path d="" fill="#5C5751" transform="translate(0,0)"/>
<path d="" fill="#5A5550" transform="translate(0,0)"/>
<path d="" fill="#5A554F" transform="translate(0,0)"/>
<path d="" fill="#5B5852" transform="translate(0,0)"/>
<path d="" fill="#595750" transform="translate(0,0)"/>
<path d="" fill="#5B5752" transform="translate(0,0)"/>
<path d="" fill="#5A5752" transform="translate(0,0)"/>
<path d="" fill="#5B5752" transform="translate(0,0)"/>
<path d="" fill="#5C5853" transform="translate(0,0)"/>
<path d="" fill="#5B5853" transform="translate(0,0)"/>
<path d="" fill="#5A5652" transform="translate(0,0)"/>
<path d="" fill="#5F5953" transform="translate(0,0)"/>
<path d="" fill="#5C5953" transform="translate(0,0)"/>
<path d="" fill="#5B5751" transform="translate(0,0)"/>
<path d="" fill="#5C5852" transform="translate(0,0)"/>
<path d="" fill="#5C5851" transform="translate(0,0)"/>
<path d="" fill="#5B5852" transform="translate(0,0)"/>
<path d="" fill="#5D5953" transform="translate(0,0)"/>
<path d="" fill="#5C5953" transform="translate(0,0)"/>
<path d="" fill="#5D5A52" transform="translate(0,0)"/>
<path d="" fill="#5D5752" transform="translate(0,0)"/>
<path d="" fill="#5C5651" transform="translate(0,0)"/>
<path d="" fill="#56534F" transform="translate(0,0)"/>
<path d="" fill="#5B5852" transform="translate(0,0)"/>
<path d="" fill="#5A5651" transform="translate(0,0)"/>
<path d="" fill="#55514D" transform="translate(0,0)"/>
<path d="" fill="#585550" transform="translate(0,0)"/>
<path d="" fill="#5C5853" transform="translate(0,0)"/>
<path d="" fill="#52514B" transform="translate(0,0)"/>
<path d="" fill="#524D48" transform="translate(0,0)"/>
<path d="" fill="#504F49" transform="translate(0,0)"/>
<path d="" fill="#59554E" transform="translate(0,0)"/>
<path d="" fill="#56524E" transform="translate(0,0)"/>
<path d="" fill="#595753" transform="translate(0,0)"/>
<path d="" fill="#52514B" transform="translate(0,0)"/>
<path d="" fill="#54504C" transform="translate(0,0)"/>
<path d="" fill="#5A5553" transform="translate(0,0)"/>
<path d="" fill="#55504C" transform="translate(0,0)"/>
<path d="" fill="#55524E" transform="translate(0,0)"/>
<path d="" fill="#595652" transform="translate(0,0)"/>
<path d="" fill="#5D5A55" transform="translate(0,0)"/>
<path d="" fill="#5A5752" transform="translate(0,0)"/>
<path d="" fill="#5D5854" transform="translate(0,0)"/>
<path d="" fill="#5A5952" transform="translate(0,0)"/>
<path d="" fill="#5C5A54" transform="translate(0,0)"/>
<path d="" fill="#5A5A55" transform="translate(0,0)"/>
<path d="" fill="#5C5954" transform="translate(0,0)"/>
<path d="" fill="#5B5C56" transform="translate(0,0)"/>
<path d="" fill="#585551" transform="translate(0,0)"/>
<path d="" fill="#595753" transform="translate(0,0)"/>
<path d="" fill="#5B5652" transform="translate(0,0)"/>
<path d="" fill="#55524D" transform="translate(0,0)"/>
<path d="" fill="#56534E" transform="translate(0,0)"/>
<path d="" fill="#55514C" transform="translate(0,0)"/>
<path d="" fill="#5C5A53" transform="translate(0,0)"/>
<path d="" fill="#5B5854" transform="translate(0,0)"/>
<path d="" fill="#504B49" transform="translate(0,0)"/>
<path d="" fill="#4F4B48" transform="translate(0,0)"/>
<path d="" fill="#4D4A45" transform="translate(0,0)"/>
<path d="" fill="#57534F" transform="translate(0,0)"/>
<path d="" fill="#57564D" transform="translate(0,0)"/>
<path d="" fill="#56504E" transform="translate(0,0)"/>
<path d="" fill="#59544D" transform="translate(0,0)"/>
<path d="" fill="#544F4F" transform="translate(0,0)"/>
<path d="" fill="#4F4C48" transform="translate(0,0)"/>
<path d="" fill="#544F4C" transform="translate(0,0)"/>
<path d="" fill="#54514B" transform="translate(0,0)"/>
<path d="" fill="#524F4B" transform="translate(0,0)"/>
<path d="" fill="#514E49" transform="translate(0,0)"/>
<path d="" fill="#514D4B" transform="translate(0,0)"/>
<path d="" fill="#514D49" transform="translate(0,0)"/>
<path d="" fill="#55504B" transform="translate(0,0)"/>
<path d="" fill="#524F49" transform="translate(0,0)"/>
<path d="" fill="#524F4A" transform="translate(0,0)"/>
<path d="" fill="#55504C" transform="translate(0,0)"/>
<path d="" fill="#524F4A" transform="translate(0,0)"/>
<path d="" fill="#575350" transform="translate(0,0)"/>
<path d="" fill="#534F4B" transform="translate(0,0)"/>
<path d="" fill="#4E4C46" transform="translate(0,0)"/>
<path d="" fill="#5A5451" transform="translate(0,0)"/>
<path d="" fill="#504C4A" transform="translate(0,0)"/>
<path d="" fill="#524D4A" transform="translate(0,0)"/>
<path d="" fill="#514E4B" transform="translate(0,0)"/>
<path d="" fill="#595750" transform="translate(0,0)"/>
<path d="" fill="#534E4B" transform="translate(0,0)"/>
<path d="" fill="#4F4C47" transform="translate(0,0)"/>
<path d="" fill="#5D5752" transform="translate(0,0)"/>
<path d="" fill="#514D49" transform="translate(0,0)"/>
<path d="" fill="#4F4D49" transform="translate(0,0)"/>
<path d="" fill="#5B574F" transform="translate(0,0)"/>
<path d="" fill="#56524E" transform="translate(0,0)"/>
<path d="" fill="#514E4C" transform="translate(0,0)"/>
<path d="" fill="#565351" transform="translate(0,0)"/>
<path d="" fill="#57544E" transform="translate(0,0)"/>
<path d="" fill="#59564F" transform="translate(0,0)"/>
<path d="" fill="#5A5450" transform="translate(0,0)"/>
<path d="" fill="#4F4C48" transform="translate(0,0)"/>
<path d="" fill="#4F4C48" transform="translate(0,0)"/>
<path d="" fill="#514D48" transform="translate(0,0)"/>
<path d="" fill="#56504C" transform="translate(0,0)"/>
<path d="" fill="#4F4D48" transform="translate(0,0)"/>
<path d="" fill="#59534E" transform="translate(0,0)"/>
<path d="" fill="#4F4B47" transform="translate(0,0)"/>
<path d="" fill="#4E4C48" transform="translate(0,0)"/>
<path d="" fill="#58544F" transform="translate(0,0)"/>
<path d="" fill="#5D574E" transform="translate(0,0)"/>
<path d="" fill="#56534B" transform="translate(0,0)"/>
<path d="" fill="#504E48" transform="translate(0,0)"/>
<path d="" fill="#4E4A4A" transform="translate(0,0)"/>
<path d="" fill="#504E46" transform="translate(0,0)"/>
<path d="" fill="#4F4A46" transform="translate(0,0)"/>
<path d="" fill="#4E4C48" transform="translate(0,0)"/>
<path d="" fill="#5B5550" transform="translate(0,0)"/>
<path d="" fill="#504C48" transform="translate(0,0)"/>
<path d="" fill="#545049" transform="translate(0,0)"/>
<path d="" fill="#504C47" transform="translate(0,0)"/>
<path d="" fill="#534E49" transform="translate(0,0)"/>
<path d="" fill="#514C47" transform="translate(0,0)"/>
<path d="" fill="#534F4A" transform="translate(0,0)"/>
<path d="" fill="#534F4B" transform="translate(0,0)"/>
<path d="" fill="#56524E" transform="translate(0,0)"/>
<path d="" fill="#4D4B46" transform="translate(0,0)"/>
<path d="" fill="#514F4A" transform="translate(0,0)"/>
<path d="" fill="#5D5750" transform="translate(0,0)"/>
<path d="" fill="#54504B" transform="translate(0,0)"/>
<path d="" fill="#55504B" transform="translate(0,0)"/>
<path d="" fill="#59544E" transform="translate(0,0)"/>
<path d="" fill="#53514D" transform="translate(0,0)"/>
<path d="" fill="#53504A" transform="translate(0,0)"/>
<path d="" fill="#555049" transform="translate(0,0)"/>
<path d="" fill="#514B46" transform="translate(0,0)"/>
<path d="" fill="#5E5957" transform="translate(0,0)"/>
<path d="" fill="#56524F" transform="translate(0,0)"/>
<path d="" fill="#534E4A" transform="translate(0,0)"/>
<path d="" fill="#534F4B" transform="translate(0,0)"/>
<path d="" fill="#524E48" transform="translate(0,0)"/>
<path d="" fill="#534F49" transform="translate(0,0)"/>
<path d="" fill="#54514F" transform="translate(0,0)"/>
<path d="" fill="#575250" transform="translate(0,0)"/>
<path d="" fill="#5D584F" transform="translate(0,0)"/>
<path d="" fill="#55524E" transform="translate(0,0)"/>
<path d="" fill="#55534F" transform="translate(0,0)"/>
<path d="" fill="#56524E" transform="translate(0,0)"/>
<path d="" fill="#56534F" transform="translate(0,0)"/>
<path d="" fill="#575351" transform="translate(0,0)"/>
<path d="" fill="#585450" transform="translate(0,0)"/>
<path d="" fill="#56514D" transform="translate(0,0)"/>
<path d="" fill="#5B574F" transform="translate(0,0)"/>
<path d="" fill="#5D564E" transform="translate(0,0)"/>
<path d="" fill="#57524E" transform="translate(0,0)"/>
<path d="" fill="#5A544F" transform="translate(0,0)"/>
<path d="" fill="#7A705C" transform="translate(0,0)"/>
<path d="" fill="#5C584E" transform="translate(0,0)"/>
<path d="" fill="#5A554E" transform="translate(0,0)"/>
<path d="" fill="#56524F" transform="translate(0,0)"/>
<path d="" fill="#58524C" transform="translate(0,0)"/>
<path d="" fill="#544F4C" transform="translate(0,0)"/>
<path d="" fill="#5A554F" transform="translate(0,0)"/>
<path d="" fill="#59564F" transform="translate(0,0)"/>
<path d="" fill="#59534A" transform="translate(0,0)"/>
<path d="" fill="#5B554F" transform="translate(0,0)"/>
<path d="" fill="#55524E" transform="translate(0,0)"/>
<path d="" fill="#56534E" transform="translate(0,0)"/>
<path d="" fill="#5A554F" transform="translate(0,0)"/>
<path d="" fill="#5C5950" transform="translate(0,0)"/>
<path d="" fill="#57534E" transform="translate(0,0)"/>
<path d="" fill="#5A5650" transform="translate(0,0)"/>
<path d="" fill="#5C574F" transform="translate(0,0)"/>
<path d="" fill="#5E5B51" transform="translate(0,0)"/>
<path d="" fill="#59544F" transform="translate(0,0)"/>
<path d="" fill="#5E5B55" transform="translate(0,0)"/>
<path d="" fill="#5A584F" transform="translate(0,0)"/>
<path d="" fill="#5E594F" transform="translate(0,0)"/>
<path d="" fill="#55534E" transform="translate(0,0)"/>
<path d="" fill="#56534F" transform="translate(0,0)"/>
<path d="" fill="#5E5B51" transform="translate(0,0)"/>
<path d="" fill="#5A564E" transform="translate(0,0)"/>
<path d="" fill="#605B53" transform="translate(0,0)"/>
<path d="" fill="#5E5B53" transform="translate(0,0)"/>
<path d="" fill="#605C54" transform="translate(0,0)"/>
<path d="" fill="#615D54" transform="translate(0,0)"/>
<path d="" fill="#625B53" transform="translate(0,0)"/>
<path d="" fill="#5E5B52" transform="translate(0,0)"/>
<path d="" fill="#5F5A53" transform="translate(0,0)"/>
<path d="" fill="#5F5B53" transform="translate(0,0)"/>
<path d="" fill="#605C55" transform="translate(0,0)"/>
<path d="" fill="#5F5B53" transform="translate(0,0)"/>
<path d="" fill="#5F5C53" transform="translate(0,0)"/>
<path d="" fill="#625C53" transform="translate(0,0)"/>
<path d="" fill="#625E54" transform="translate(0,0)"/>
<path d="" fill="#615E55" transform="translate(0,0)"/>
<path d="" fill="#645E55" transform="translate(0,0)"/>
<path d="" fill="#645E57" transform="translate(0,0)"/>
<path d="" fill="#615F56" transform="translate(0,0)"/>
<path d="" fill="#635F55" transform="translate(0,0)"/>
<path d="" fill="#615C53" transform="translate(0,0)"/>
<path d="" fill="#625C54" transform="translate(0,0)"/>
<path d="" fill="#605D54" transform="translate(0,0)"/>
<path d="" fill="#615B55" transform="translate(0,0)"/>
<path d="" fill="#615F55" transform="translate(0,0)"/>
<path d="" fill="#5E5952" transform="translate(0,0)"/>
<path d="" fill="#615D57" transform="translate(0,0)"/>
<path d="" fill="#625F53" transform="translate(0,0)"/>
<path d="" fill="#656056" transform="translate(0,0)"/>
<path d="" fill="#655F55" transform="translate(0,0)"/>
<path d="" fill="#625F54" transform="translate(0,0)"/>
<path d="" fill="#635F56" transform="translate(0,0)"/>
<path d="" fill="#636056" transform="translate(0,0)"/>
<path d="" fill="#655F56" transform="translate(0,0)"/>
<path d="" fill="#645F56" transform="translate(0,0)"/>
<path d="" fill="#625D55" transform="translate(0,0)"/>
<path d="" fill="#655E56" transform="translate(0,0)"/>
<path d="" fill="#645E54" transform="translate(0,0)"/>
<path d="" fill="#645E58" transform="translate(0,0)"/>
<path d="" fill="#615D54" transform="translate(0,0)"/>
<path d="" fill="#625C56" transform="translate(0,0)"/>
<path d="" fill="#635E56" transform="translate(0,0)"/>
<path d="" fill="#5F5D55" transform="translate(0,0)"/>
<path d="" fill="#9B8865" transform="translate(0,0)"/>
</svg>
